<?xml version="1.0" standalone="no"?>
<!DOCTYPE svg PUBLIC "-//W3C//DTD SVG 1.0//EN" "http://www.w3.org/TR/2001/REC-SVG-20010904/DTD/svg10.dtd">
<svg xmlns="http://www.w3.org/2000/svg" xmlns:xlink="http://www.w3.org/1999/xlink" id="body_1" width="600" height="400">

<defs>
    <radialGradient cx="57.89477%" cy="0%" r="141.42133%" gradientUnits="objectBoundingBox" id="1">
        <stop offset="0%" stop-color="#3AA9D7" stop-opacity="1"/>
        <stop offset="100%" stop-color="#2BA3D4" stop-opacity="1"/>
    </radialGradient>
<mask id="257">
<path  transform="matrix(1 0 -0 -1 -321 163.5)"   d="M1063.689 -47.631805C 1063.689 71.104805 1016.47076 185.09975 932.5113 269.0592C 848.5518 353.01868 734.55695 400.2369 615.8203 400.2369C 497.0837 400.2369 383.08878 353.01868 299.1293 269.0592C 215.16985 185.09975 167.9516 71.104805 167.9516 -47.631805C 167.9516 -166.36842 215.16985 -280.36334 299.1293 -364.3228C 383.08878 -448.2823 497.0837 -495.50052 615.8203 -495.50052C 734.55695 -495.50052 848.5518 -448.2823 932.5113 -364.3228C 1016.47076 -280.36334 1063.689 -166.36842 1063.689 -47.631805z" fill="white"/>
</mask>
</defs>

<g transform="matrix(1 0 0 1 0 0)">
    <path d="M0 0L600 0L600 400L0 400z" stroke="none" mask="url(#257)" fill="url(#1)"  />
    <path d="M234.539 148.5L234.539 251.5L365.461 251.5L365.461 148.5L234.539 148.5zM354.909 240.33L245.707 240.33L245.707 159.669L354.909 159.669L354.909 240.33z" stroke="none" fill="#FFFFFF" fill-rule="nonzero" />
    <path d="M251.58 231.643L274.088 207.984L282.521 211.633L309.13 183.308L319.604 195.836L324.33 0L231.643 251.58" stroke="none" fill="#FFFFFF" fill-rule="nonzero" />
    <path d="M287.412 180.18C 287.412 177.46552 286.4523 175.14856 284.53287 173.22913C 282.61343 171.30971 280.29648 170.35 277.582 170.34999C 274.86752 170.35 272.55057 171.30971 270.63113 173.22913C 268.71173 175.14856 267.752 177.46552 267.752 180.18C 267.752 182.89447 268.71173 185.21143 270.63113 187.13086C 272.55057 189.0503 274.86752 190.01 277.582 190.01C 280.29648 190.01 282.61343 189.0503 284.53287 187.13086C 286.4523 185.21143 287.412 182.89447 287.412 180.18" stroke="none" fill="#FFFFFF" fill-rule="nonzero" />
</g>
</svg>